<mxfile host="app.diagrams.net" modified="2023-07-18T16:15:31.245Z" agent="Mozilla/5.0 (X11; Linux x86_64; rv:109.0) Gecko/20100101 Firefox/111.0" etag="o-WBBlWXHj4lwsFLne1Y" version="21.6.2" type="device">
  <diagram name="Page-1" id="moUsD8jSpCFT6V2yOXMw">
    <mxGraphModel dx="972" dy="731" grid="1" gridSize="10" guides="1" tooltips="1" connect="1" arrows="1" fold="1" page="1" pageScale="1" pageWidth="850" pageHeight="1100" math="0" shadow="0">
      <root>
        <mxCell id="0" />
        <mxCell id="1" parent="0" />
        <mxCell id="qJZFCacRla0ivbcwvyp5-1" value="" style="rounded=0;whiteSpace=wrap;html=1;fillColor=#000000;strokeColor=#6c8ebf;" vertex="1" parent="1">
          <mxGeometry x="160" y="80" width="120" height="80" as="geometry" />
        </mxCell>
        <mxCell id="qJZFCacRla0ivbcwvyp5-2" value="" style="rounded=0;whiteSpace=wrap;html=1;strokeColor=#000000;fillColor=#000000;" vertex="1" parent="1">
          <mxGeometry x="360" y="80" width="120" height="80" as="geometry" />
        </mxCell>
        <mxCell id="qJZFCacRla0ivbcwvyp5-3" value="" style="rounded=0;whiteSpace=wrap;html=1;fillColor=#000000;" vertex="1" parent="1">
          <mxGeometry x="560" y="80" width="120" height="80" as="geometry" />
        </mxCell>
        <mxCell id="qJZFCacRla0ivbcwvyp5-4" value="Op 1" style="text;html=1;strokeColor=none;fillColor=#1BA1E2;align=center;verticalAlign=middle;whiteSpace=wrap;rounded=0;" vertex="1" parent="1">
          <mxGeometry x="60" y="105" width="60" height="30" as="geometry" />
        </mxCell>
        <mxCell id="qJZFCacRla0ivbcwvyp5-92" style="edgeStyle=orthogonalEdgeStyle;rounded=0;orthogonalLoop=1;jettySize=auto;html=1;exitX=0;exitY=0.5;exitDx=0;exitDy=0;entryX=0;entryY=0.25;entryDx=0;entryDy=0;" edge="1" parent="1" source="qJZFCacRla0ivbcwvyp5-6" target="qJZFCacRla0ivbcwvyp5-90">
          <mxGeometry relative="1" as="geometry" />
        </mxCell>
        <mxCell id="qJZFCacRla0ivbcwvyp5-6" value="" style="rounded=0;whiteSpace=wrap;html=1;fillColor=#1ba1e2;strokeColor=#006EAF;fontColor=#ffffff;" vertex="1" parent="1">
          <mxGeometry x="160" y="100" width="120" height="60" as="geometry" />
        </mxCell>
        <mxCell id="qJZFCacRla0ivbcwvyp5-95" style="edgeStyle=orthogonalEdgeStyle;rounded=0;orthogonalLoop=1;jettySize=auto;html=1;exitX=0;exitY=0.5;exitDx=0;exitDy=0;entryX=0;entryY=0;entryDx=0;entryDy=0;" edge="1" parent="1" source="qJZFCacRla0ivbcwvyp5-8" target="qJZFCacRla0ivbcwvyp5-26">
          <mxGeometry relative="1" as="geometry">
            <Array as="points">
              <mxPoint x="340" y="140" />
              <mxPoint x="340" y="240" />
            </Array>
          </mxGeometry>
        </mxCell>
        <mxCell id="qJZFCacRla0ivbcwvyp5-8" value="" style="rounded=0;whiteSpace=wrap;html=1;fillColor=#1ba1e2;strokeColor=#006EAF;fontColor=#ffffff;" vertex="1" parent="1">
          <mxGeometry x="360" y="120" width="120" height="40" as="geometry" />
        </mxCell>
        <mxCell id="qJZFCacRla0ivbcwvyp5-78" style="edgeStyle=orthogonalEdgeStyle;rounded=0;orthogonalLoop=1;jettySize=auto;html=1;exitX=0;exitY=0.5;exitDx=0;exitDy=0;entryX=0;entryY=0.5;entryDx=0;entryDy=0;" edge="1" parent="1" source="qJZFCacRla0ivbcwvyp5-10" target="qJZFCacRla0ivbcwvyp5-24">
          <mxGeometry relative="1" as="geometry" />
        </mxCell>
        <mxCell id="qJZFCacRla0ivbcwvyp5-10" value="" style="rounded=0;whiteSpace=wrap;html=1;fillColor=#1ba1e2;strokeColor=#006EAF;fontColor=#ffffff;" vertex="1" parent="1">
          <mxGeometry x="560" y="120" width="120" height="40" as="geometry" />
        </mxCell>
        <mxCell id="qJZFCacRla0ivbcwvyp5-11" value="Op 2" style="text;html=1;strokeColor=#005700;fillColor=#008a00;align=center;verticalAlign=middle;whiteSpace=wrap;rounded=0;fontColor=#ffffff;" vertex="1" parent="1">
          <mxGeometry x="60" y="220" width="60" height="30" as="geometry" />
        </mxCell>
        <mxCell id="qJZFCacRla0ivbcwvyp5-12" value="" style="rounded=0;whiteSpace=wrap;html=1;strokeColor=#000000;fillColor=#000000;" vertex="1" parent="1">
          <mxGeometry x="360" y="200" width="120" height="80" as="geometry" />
        </mxCell>
        <mxCell id="qJZFCacRla0ivbcwvyp5-13" value="" style="rounded=0;whiteSpace=wrap;html=1;fillColor=#000000;strokeColor=#6c8ebf;" vertex="1" parent="1">
          <mxGeometry x="160" y="200" width="120" height="80" as="geometry" />
        </mxCell>
        <mxCell id="qJZFCacRla0ivbcwvyp5-14" value="" style="rounded=0;whiteSpace=wrap;html=1;fillColor=#000000;" vertex="1" parent="1">
          <mxGeometry x="560" y="200" width="120" height="80" as="geometry" />
        </mxCell>
        <mxCell id="qJZFCacRla0ivbcwvyp5-18" value="&lt;div&gt;Input&lt;/div&gt;" style="text;html=1;strokeColor=none;fillColor=default;align=center;verticalAlign=middle;whiteSpace=wrap;rounded=0;" vertex="1" parent="1">
          <mxGeometry x="190" y="125" width="60" height="30" as="geometry" />
        </mxCell>
        <mxCell id="qJZFCacRla0ivbcwvyp5-19" value="&lt;div&gt;Input&lt;/div&gt;" style="text;html=1;strokeColor=none;fillColor=default;align=center;verticalAlign=middle;whiteSpace=wrap;rounded=0;" vertex="1" parent="1">
          <mxGeometry x="390" y="125" width="60" height="30" as="geometry" />
        </mxCell>
        <mxCell id="qJZFCacRla0ivbcwvyp5-20" value="&lt;div&gt;Output&lt;/div&gt;" style="text;html=1;strokeColor=none;fillColor=default;align=center;verticalAlign=middle;whiteSpace=wrap;rounded=0;" vertex="1" parent="1">
          <mxGeometry x="590" y="125" width="60" height="30" as="geometry" />
        </mxCell>
        <mxCell id="qJZFCacRla0ivbcwvyp5-22" value="" style="rounded=0;whiteSpace=wrap;html=1;fillColor=#008a00;fontColor=#ffffff;strokeColor=#e01b24;strokeWidth=3;" vertex="1" parent="1">
          <mxGeometry x="360" y="200" width="120" height="40" as="geometry" />
        </mxCell>
        <mxCell id="qJZFCacRla0ivbcwvyp5-79" style="edgeStyle=orthogonalEdgeStyle;rounded=0;orthogonalLoop=1;jettySize=auto;html=1;exitX=0;exitY=0.5;exitDx=0;exitDy=0;entryX=0;entryY=0.5;entryDx=0;entryDy=0;" edge="1" parent="1" source="qJZFCacRla0ivbcwvyp5-24" target="qJZFCacRla0ivbcwvyp5-37">
          <mxGeometry relative="1" as="geometry" />
        </mxCell>
        <mxCell id="qJZFCacRla0ivbcwvyp5-24" value="" style="rounded=0;whiteSpace=wrap;html=1;fillColor=#1ba1e2;strokeColor=#006EAF;fontColor=#ffffff;" vertex="1" parent="1">
          <mxGeometry x="560" y="240" width="120" height="40" as="geometry" />
        </mxCell>
        <mxCell id="qJZFCacRla0ivbcwvyp5-107" style="edgeStyle=orthogonalEdgeStyle;rounded=0;orthogonalLoop=1;jettySize=auto;html=1;exitX=0;exitY=0;exitDx=0;exitDy=0;entryX=0;entryY=0;entryDx=0;entryDy=0;" edge="1" parent="1" source="qJZFCacRla0ivbcwvyp5-26" target="qJZFCacRla0ivbcwvyp5-104">
          <mxGeometry relative="1" as="geometry">
            <Array as="points">
              <mxPoint x="340" y="240" />
              <mxPoint x="340" y="360" />
            </Array>
          </mxGeometry>
        </mxCell>
        <mxCell id="qJZFCacRla0ivbcwvyp5-26" value="" style="rounded=0;whiteSpace=wrap;html=1;fillColor=#008a00;fontColor=#ffffff;strokeColor=#e01b24;strokeWidth=3;" vertex="1" parent="1">
          <mxGeometry x="360" y="240" width="120" height="40" as="geometry" />
        </mxCell>
        <mxCell id="qJZFCacRla0ivbcwvyp5-30" value="&lt;div&gt;Input &amp;amp; Output&lt;/div&gt;" style="text;html=1;strokeColor=none;fillColor=default;align=center;verticalAlign=middle;whiteSpace=wrap;rounded=0;" vertex="1" parent="1">
          <mxGeometry x="390" y="170" width="60" height="20" as="geometry" />
        </mxCell>
        <mxCell id="qJZFCacRla0ivbcwvyp5-32" value="Op 3" style="text;html=1;strokeColor=#C73500;fillColor=#fa6800;align=center;verticalAlign=middle;whiteSpace=wrap;rounded=0;fontColor=#000000;" vertex="1" parent="1">
          <mxGeometry x="60" y="340" width="60" height="30" as="geometry" />
        </mxCell>
        <mxCell id="qJZFCacRla0ivbcwvyp5-33" value="" style="rounded=0;whiteSpace=wrap;html=1;strokeColor=#000000;fillColor=#000000;" vertex="1" parent="1">
          <mxGeometry x="360" y="320" width="120" height="80" as="geometry" />
        </mxCell>
        <mxCell id="qJZFCacRla0ivbcwvyp5-34" value="" style="rounded=0;whiteSpace=wrap;html=1;fillColor=#000000;strokeColor=#6c8ebf;" vertex="1" parent="1">
          <mxGeometry x="160" y="320" width="120" height="80" as="geometry" />
        </mxCell>
        <mxCell id="qJZFCacRla0ivbcwvyp5-35" value="" style="rounded=0;whiteSpace=wrap;html=1;fillColor=#000000;" vertex="1" parent="1">
          <mxGeometry x="560" y="320" width="120" height="80" as="geometry" />
        </mxCell>
        <mxCell id="qJZFCacRla0ivbcwvyp5-37" value="" style="rounded=0;whiteSpace=wrap;html=1;fillColor=#1ba1e2;strokeColor=#006EAF;fontColor=#ffffff;" vertex="1" parent="1">
          <mxGeometry x="560" y="360" width="120" height="40" as="geometry" />
        </mxCell>
        <mxCell id="qJZFCacRla0ivbcwvyp5-98" style="edgeStyle=orthogonalEdgeStyle;rounded=0;orthogonalLoop=1;jettySize=auto;html=1;exitX=0;exitY=0.5;exitDx=0;exitDy=0;entryX=0;entryY=0.5;entryDx=0;entryDy=0;" edge="1" parent="1" source="qJZFCacRla0ivbcwvyp5-41" target="qJZFCacRla0ivbcwvyp5-67">
          <mxGeometry relative="1" as="geometry" />
        </mxCell>
        <mxCell id="qJZFCacRla0ivbcwvyp5-41" value="" style="rounded=0;whiteSpace=wrap;html=1;fillColor=#fa6800;fontColor=#000000;strokeColor=#C73500;" vertex="1" parent="1">
          <mxGeometry x="560" y="320" width="120" height="40" as="geometry" />
        </mxCell>
        <mxCell id="qJZFCacRla0ivbcwvyp5-94" style="edgeStyle=orthogonalEdgeStyle;rounded=0;orthogonalLoop=1;jettySize=auto;html=1;exitX=0;exitY=0.5;exitDx=0;exitDy=0;entryX=0;entryY=0.5;entryDx=0;entryDy=0;" edge="1" parent="1" source="qJZFCacRla0ivbcwvyp5-53" target="qJZFCacRla0ivbcwvyp5-87">
          <mxGeometry relative="1" as="geometry" />
        </mxCell>
        <mxCell id="qJZFCacRla0ivbcwvyp5-53" value="" style="rounded=0;whiteSpace=wrap;html=1;fillColor=#fa6800;fontColor=#000000;strokeColor=#C73500;" vertex="1" parent="1">
          <mxGeometry x="160" y="330" width="120" height="70" as="geometry" />
        </mxCell>
        <mxCell id="qJZFCacRla0ivbcwvyp5-55" value="Op 4" style="text;html=1;strokeColor=#A50040;fillColor=#d80073;align=center;verticalAlign=middle;whiteSpace=wrap;rounded=0;fontColor=#ffffff;" vertex="1" parent="1">
          <mxGeometry x="60" y="460" width="60" height="30" as="geometry" />
        </mxCell>
        <mxCell id="qJZFCacRla0ivbcwvyp5-56" value="" style="rounded=0;whiteSpace=wrap;html=1;strokeColor=#000000;fillColor=#000000;" vertex="1" parent="1">
          <mxGeometry x="360" y="440" width="120" height="80" as="geometry" />
        </mxCell>
        <mxCell id="qJZFCacRla0ivbcwvyp5-57" value="" style="rounded=0;whiteSpace=wrap;html=1;fillColor=#000000;strokeColor=#6c8ebf;" vertex="1" parent="1">
          <mxGeometry x="160" y="440" width="120" height="80" as="geometry" />
        </mxCell>
        <mxCell id="qJZFCacRla0ivbcwvyp5-58" value="" style="rounded=0;whiteSpace=wrap;html=1;fillColor=#000000;" vertex="1" parent="1">
          <mxGeometry x="560" y="440" width="120" height="80" as="geometry" />
        </mxCell>
        <mxCell id="qJZFCacRla0ivbcwvyp5-59" style="edgeStyle=orthogonalEdgeStyle;rounded=0;orthogonalLoop=1;jettySize=auto;html=1;exitX=0.5;exitY=0;exitDx=0;exitDy=0;entryX=0.75;entryY=1;entryDx=0;entryDy=0;" edge="1" parent="1">
          <mxGeometry relative="1" as="geometry">
            <mxPoint x="235" y="440" as="targetPoint" />
            <mxPoint x="220" y="470" as="sourcePoint" />
          </mxGeometry>
        </mxCell>
        <mxCell id="qJZFCacRla0ivbcwvyp5-60" style="edgeStyle=orthogonalEdgeStyle;rounded=0;orthogonalLoop=1;jettySize=auto;html=1;exitX=0.5;exitY=0;exitDx=0;exitDy=0;entryX=0.5;entryY=0;entryDx=0;entryDy=0;" edge="1" parent="1" target="qJZFCacRla0ivbcwvyp5-57">
          <mxGeometry relative="1" as="geometry">
            <mxPoint x="220" y="470" as="sourcePoint" />
          </mxGeometry>
        </mxCell>
        <mxCell id="qJZFCacRla0ivbcwvyp5-67" value="" style="rounded=0;whiteSpace=wrap;html=1;fillColor=#d80073;fontColor=#ffffff;strokeColor=#A50040;" vertex="1" parent="1">
          <mxGeometry x="560" y="460" width="120" height="60" as="geometry" />
        </mxCell>
        <mxCell id="qJZFCacRla0ivbcwvyp5-71" value="&lt;div&gt;SPM 1&lt;/div&gt;" style="text;html=1;align=center;verticalAlign=middle;resizable=0;points=[];autosize=1;strokeColor=none;fillColor=none;" vertex="1" parent="1">
          <mxGeometry x="190" y="38" width="60" height="30" as="geometry" />
        </mxCell>
        <mxCell id="qJZFCacRla0ivbcwvyp5-72" value="&lt;div&gt;SPM 2&lt;br&gt;&lt;/div&gt;" style="text;html=1;align=center;verticalAlign=middle;resizable=0;points=[];autosize=1;strokeColor=none;fillColor=none;" vertex="1" parent="1">
          <mxGeometry x="390" y="38" width="60" height="30" as="geometry" />
        </mxCell>
        <mxCell id="qJZFCacRla0ivbcwvyp5-73" value="&lt;div&gt;SPM 3&lt;br&gt;&lt;/div&gt;" style="text;html=1;align=center;verticalAlign=middle;resizable=0;points=[];autosize=1;strokeColor=none;fillColor=none;" vertex="1" parent="1">
          <mxGeometry x="590" y="38" width="60" height="30" as="geometry" />
        </mxCell>
        <mxCell id="qJZFCacRla0ivbcwvyp5-74" value="&lt;div&gt;Input&lt;/div&gt;" style="text;html=1;strokeColor=none;fillColor=default;align=center;verticalAlign=middle;whiteSpace=wrap;rounded=0;" vertex="1" parent="1">
          <mxGeometry x="390" y="205" width="60" height="30" as="geometry" />
        </mxCell>
        <mxCell id="qJZFCacRla0ivbcwvyp5-75" value="&lt;div&gt;Output&lt;/div&gt;" style="text;html=1;strokeColor=none;fillColor=default;align=center;verticalAlign=middle;whiteSpace=wrap;rounded=0;" vertex="1" parent="1">
          <mxGeometry x="390" y="245" width="60" height="30" as="geometry" />
        </mxCell>
        <mxCell id="qJZFCacRla0ivbcwvyp5-77" value="&lt;div&gt;Input&lt;/div&gt;" style="text;html=1;strokeColor=none;fillColor=default;align=center;verticalAlign=middle;whiteSpace=wrap;rounded=0;" vertex="1" parent="1">
          <mxGeometry x="590" y="245" width="60" height="30" as="geometry" />
        </mxCell>
        <mxCell id="qJZFCacRla0ivbcwvyp5-80" value="&lt;div&gt;Input&lt;/div&gt;" style="text;html=1;strokeColor=none;fillColor=default;align=center;verticalAlign=middle;whiteSpace=wrap;rounded=0;" vertex="1" parent="1">
          <mxGeometry x="590" y="365" width="60" height="30" as="geometry" />
        </mxCell>
        <mxCell id="qJZFCacRla0ivbcwvyp5-81" value="&lt;div&gt;Input&lt;/div&gt;" style="text;html=1;strokeColor=none;fillColor=default;align=center;verticalAlign=middle;whiteSpace=wrap;rounded=0;" vertex="1" parent="1">
          <mxGeometry x="590" y="325" width="60" height="30" as="geometry" />
        </mxCell>
        <mxCell id="qJZFCacRla0ivbcwvyp5-82" value="&lt;div&gt;Output&lt;/div&gt;" style="text;html=1;strokeColor=none;fillColor=default;align=center;verticalAlign=middle;whiteSpace=wrap;rounded=0;" vertex="1" parent="1">
          <mxGeometry x="190" y="355" width="60" height="30" as="geometry" />
        </mxCell>
        <mxCell id="qJZFCacRla0ivbcwvyp5-83" value="" style="rounded=0;whiteSpace=wrap;html=1;fillColor=#008a00;fontColor=#ffffff;strokeColor=none;strokeWidth=3;" vertex="1" parent="1">
          <mxGeometry x="360" y="360" width="120" height="40" as="geometry" />
        </mxCell>
        <mxCell id="qJZFCacRla0ivbcwvyp5-85" value="&lt;div&gt;Output&lt;/div&gt;" style="text;html=1;strokeColor=none;fillColor=default;align=center;verticalAlign=middle;whiteSpace=wrap;rounded=0;" vertex="1" parent="1">
          <mxGeometry x="590" y="480" width="60" height="30" as="geometry" />
        </mxCell>
        <mxCell id="qJZFCacRla0ivbcwvyp5-86" value="" style="rounded=0;whiteSpace=wrap;html=1;fillColor=#008a00;fontColor=#ffffff;strokeColor=none;strokeWidth=3;" vertex="1" parent="1">
          <mxGeometry x="360" y="480" width="120" height="40" as="geometry" />
        </mxCell>
        <mxCell id="qJZFCacRla0ivbcwvyp5-87" value="" style="rounded=0;whiteSpace=wrap;html=1;fillColor=#fa6800;fontColor=#000000;strokeColor=#C73500;" vertex="1" parent="1">
          <mxGeometry x="160" y="450" width="120" height="70" as="geometry" />
        </mxCell>
        <mxCell id="qJZFCacRla0ivbcwvyp5-89" value="&lt;div&gt;Input&lt;/div&gt;" style="text;html=1;strokeColor=none;fillColor=default;align=center;verticalAlign=middle;whiteSpace=wrap;rounded=0;" vertex="1" parent="1">
          <mxGeometry x="190" y="480" width="60" height="30" as="geometry" />
        </mxCell>
        <mxCell id="qJZFCacRla0ivbcwvyp5-93" style="edgeStyle=orthogonalEdgeStyle;rounded=0;orthogonalLoop=1;jettySize=auto;html=1;exitX=0;exitY=0.5;exitDx=0;exitDy=0;entryX=0;entryY=0.25;entryDx=0;entryDy=0;" edge="1" parent="1" source="qJZFCacRla0ivbcwvyp5-90" target="qJZFCacRla0ivbcwvyp5-53">
          <mxGeometry relative="1" as="geometry" />
        </mxCell>
        <mxCell id="qJZFCacRla0ivbcwvyp5-90" value="" style="rounded=0;whiteSpace=wrap;html=1;fillColor=#1ba1e2;strokeColor=#006EAF;fontColor=#ffffff;" vertex="1" parent="1">
          <mxGeometry x="160" y="240" width="120" height="40" as="geometry" />
        </mxCell>
        <mxCell id="qJZFCacRla0ivbcwvyp5-99" value="" style="shape=mxgraph.sysml.x;" vertex="1" parent="1">
          <mxGeometry x="120" y="275" width="40" height="40" as="geometry" />
        </mxCell>
        <mxCell id="qJZFCacRla0ivbcwvyp5-100" value="" style="shape=mxgraph.sysml.x;" vertex="1" parent="1">
          <mxGeometry x="520" y="400" width="40" height="40" as="geometry" />
        </mxCell>
        <mxCell id="qJZFCacRla0ivbcwvyp5-101" value="" style="shape=mxgraph.sysml.x;" vertex="1" parent="1">
          <mxGeometry x="320" y="165" width="40" height="40" as="geometry" />
        </mxCell>
        <mxCell id="qJZFCacRla0ivbcwvyp5-102" value="" style="rounded=0;whiteSpace=wrap;html=1;fillColor=#008a00;fontColor=#ffffff;strokeColor=#e01b24;strokeWidth=3;" vertex="1" parent="1">
          <mxGeometry x="360" y="320" width="120" height="40" as="geometry" />
        </mxCell>
        <mxCell id="qJZFCacRla0ivbcwvyp5-103" value="" style="rounded=0;whiteSpace=wrap;html=1;fillColor=#008a00;fontColor=#ffffff;strokeColor=#e01b24;strokeWidth=3;" vertex="1" parent="1">
          <mxGeometry x="360" y="440" width="120" height="40" as="geometry" />
        </mxCell>
        <mxCell id="qJZFCacRla0ivbcwvyp5-108" style="edgeStyle=orthogonalEdgeStyle;rounded=0;orthogonalLoop=1;jettySize=auto;html=1;exitX=0;exitY=0;exitDx=0;exitDy=0;entryX=0;entryY=0;entryDx=0;entryDy=0;" edge="1" parent="1" source="qJZFCacRla0ivbcwvyp5-104" target="qJZFCacRla0ivbcwvyp5-105">
          <mxGeometry relative="1" as="geometry">
            <Array as="points">
              <mxPoint x="340" y="360" />
              <mxPoint x="340" y="480" />
            </Array>
          </mxGeometry>
        </mxCell>
        <mxCell id="qJZFCacRla0ivbcwvyp5-104" value="" style="rounded=0;whiteSpace=wrap;html=1;fillColor=#008a00;fontColor=#ffffff;strokeColor=#e01b24;strokeWidth=3;" vertex="1" parent="1">
          <mxGeometry x="360" y="360" width="120" height="40" as="geometry" />
        </mxCell>
        <mxCell id="qJZFCacRla0ivbcwvyp5-105" value="" style="rounded=0;whiteSpace=wrap;html=1;fillColor=#008a00;fontColor=#ffffff;strokeColor=#e01b24;strokeWidth=3;" vertex="1" parent="1">
          <mxGeometry x="360" y="480" width="120" height="40" as="geometry" />
        </mxCell>
        <mxCell id="qJZFCacRla0ivbcwvyp5-88" value="&lt;div&gt;Input&lt;/div&gt;" style="text;html=1;strokeColor=none;fillColor=default;align=center;verticalAlign=middle;whiteSpace=wrap;rounded=0;" vertex="1" parent="1">
          <mxGeometry x="390" y="485" width="60" height="30" as="geometry" />
        </mxCell>
        <mxCell id="qJZFCacRla0ivbcwvyp5-109" value="" style="shape=mxgraph.sysml.x;" vertex="1" parent="1">
          <mxGeometry x="530" y="395" width="40" height="40" as="geometry" />
        </mxCell>
      </root>
    </mxGraphModel>
  </diagram>
</mxfile>
